/* XPM */
static char *_0e1ecb84aee40aaf917511e929b220cNP1qmxbuxRzmout2[] = {
/* columns rows colors chars-per-pixel */
"13 16 10 1 ",
"  c None",
". c #754C60",
"X c #6B7470",
"o c #90625D",
"O c #AA7959",
"+ c #B68962",
"@ c #818B83",
"# c #9DA89A",
"$ c #C1C8B9",
"% c #F3F4E7",
/* pixels */
"        %%%  ",
"      %%@@%  ",
"     %@@$X%  ",
"    %@$$#X%%%",
"    %@$##Xoo%",
"   %@$####+.%",
"   %@XXX###X%",
"   %%%%oO#X% ",
"     %o+.X%  ",
"    %o+.%%   ",
"   %o+.%     ",
"  %o+.%      ",
" %o+.%       ",
"%o+.%        ",
"%..%         ",
"%%%          "
};
