/* XPM */
static char *_f8eb508ba5b41b8cbacce5d820db6f137rXbYyf56v3CmwK[] = {
/* columns rows colors chars-per-pixel */
"42 39 4 1 ",
"  c None",
". c #78A158",
"X c #A4C263",
"o c #C0D470",
/* pixels */
"..XXXXXXXXXXXoXXXXXXXoXXXXXooooXXXXXXXXX..",
".XXXXXXoXooooooooXooXooXoooooooXoXXXXXXX..",
"..XXXXooooXooooXooooooooooXooooooooXoXXX..",
"..XXXoooooooooooooooooXoooooooooooooooXXX.",
".XXXoooooooooooooooooooooooooooooooooooXX.",
".XXXXooooooooooooooooooooooooooXoooooooXXX",
"XXXoooooooooooooooooooooooooooooooooXooXXX",
"XXXoooooooXoooooooooooooooooooooooooooooX.",
"XXXoXooooooooooooooooooooooooooooooooooXX.",
"XXooooooooooooooooooooooooooooooooooooooXX",
"XXooooooooooooooooooooooooooooooooooooooXX",
"XXXoooooooooooooooooooooooooooooooooooooXX",
"XXooXoooooooooooooooooooooooooooooooooooXX",
"XXooooooooooooooooooooooooooooooooXooooXXX",
".XXoooooXoooooooooooooooooooooooooooooXXX.",
".XXXoooooooooooooooooooooooooooooooooooXX.",
".XXoooooooooooooooooooooooooooooooooooXXX.",
"XXXooXooooooooooooooooooooooooooooooooXXXX",
"XXoooooooooooooooooooooooooooooooooooooXXX",
"XXooooooooooooooooooooooooooooooooooXooXXX",
"XXXooooooooooooooooooooooooooooooooooooXXX",
".XXooooooooooooooooooooooooooooooooooooXXX",
".XXooooooooooooooooooooooooooooooXooooXXXX",
"XXXXooXooooooooooooooooooooooooooooooooXX.",
"XXXoooooooooooooooooooooooooooooooooXoooX.",
"XXooooooooooooooooooooooooooooooooooooooXX",
"XXXoooooooooooooooooooooooooooooooooooooXX",
"XXoooooooooooooooooooooooooooooooooooooXX.",
"XXXooooooooooooooooooooooooooooooooooooXX.",
".XXXooooooooooooooooooooooooooooooXoooXXXX",
".XXooooXoooooooooooooooooooooooooooooooXXX",
"XXXXooooooooooooooooooooooooooooooooooXXXX",
"XXXoooooooXooooooooooooooooooooooooooooXX.",
".XXooooooooooooXoooooooooXoooooooooooooXX.",
".XXXXoooooooooooooooooooooooooooXooXooXXX.",
".XXXooooXooooooooooXooooooooooooooooooXX..",
"..XXXooXooooooooXooooooXooXooooooooooXXX..",
"..XXXXXXXXoXoooXXXXoooXXXXXXoooXooXXXXXX..",
" ..XXXXXXXXXXXXXXXXXXXXXXXXXXXXXXXXXXXX.. "
};
